<?xml version="1.0" encoding="UTF-8" standalone="no"?>
<!-- Created with Inkscape (http://www.inkscape.org/) -->

<svg
   xmlns:dc="http://purl.org/dc/elements/1.1/"
   xmlns:cc="http://creativecommons.org/ns#"
   xmlns:rdf="http://www.w3.org/1999/02/22-rdf-syntax-ns#"
   xmlns:svg="http://www.w3.org/2000/svg"
   xmlns="http://www.w3.org/2000/svg"
   xmlns:sodipodi="http://sodipodi.sourceforge.net/DTD/sodipodi-0.dtd"
   xmlns:inkscape="http://www.inkscape.org/namespaces/inkscape"
   viewBox="0 0 100 100"
   id="svg2"
   version="1.1"
   inkscape:version="0.91 r13725"
   sodipodi:docname="ava.svg">
  <defs
     id="defs4" />
  <sodipodi:namedview
     id="base"
     pagecolor="#ffffff"
     bordercolor="#666666"
     borderopacity="1.0"
     inkscape:pageopacity="0"
     inkscape:pageshadow="2"
     inkscape:zoom="8"
     inkscape:cx="26.862719"
     inkscape:cy="53.928806"
     inkscape:document-units="px"
     inkscape:current-layer="layer3"
     showgrid="true"
     showguides="true"
     inkscape:window-width="2552"
     inkscape:window-height="1382"
     inkscape:window-x="0"
     inkscape:window-y="0"
     inkscape:window-maximized="1"
     inkscape:snap-grids="true"
     inkscape:snap-page="false"
     inkscape:snap-to-guides="true"
     inkscape:snap-bbox="false"
     inkscape:object-paths="true"
     inkscape:snap-object-midpoints="true"
     inkscape:snap-intersection-paths="true"
     objecttolerance="20"
     inkscape:snap-nodes="false"
     units="px"
     showborder="false"
     borderlayer="false"
     inkscape:showpageshadow="false">
    <inkscape:grid
       type="xygrid"
       id="grid4140" />
  </sodipodi:namedview>
  <metadata
     id="metadata7">
    <rdf:RDF>
      <cc:Work
         rdf:about="">
        <dc:format>image/svg+xml</dc:format>
        <dc:type
           rdf:resource="http://purl.org/dc/dcmitype/StillImage" />
        <dc:title></dc:title>
      </cc:Work>
    </rdf:RDF>
  </metadata>
  <g
     inkscape:groupmode="layer"
     id="layer4"
     inkscape:label="bg"
     transform="translate(0,-254.33074)"
     style="display:inline">
    <rect
       style="fill:#f0f0f0;fill-opacity:1;stroke:none;stroke-width:0.65644783;stroke-linecap:round;stroke-linejoin:round;stroke-miterlimit:4;stroke-dasharray:none;stroke-opacity:1"
       id="rect4272"
       width="99.942284"
       height="99.942261"
       x="0.028858634"
       y="254.35962" />
  </g>
  <g
     inkscape:groupmode="layer"
     id="layer3"
     inkscape:label="programmer"
     transform="translate(0,-254.33074)"
     style="display:inline">
    <g
       id="g4214">
      <path
         sodipodi:nodetypes="cccccc"
         inkscape:connector-curvature="0"
         id="bodyl-path4203"
         d="m 30.164284,321.46821 13.972129,0.2857 5.947005,-0.48467 4.207282,-1.15131 -28.445945,-3.93009 z"
         style="fill:#cbcbcb;fill-opacity:1;fill-rule:evenodd;stroke:#000000;stroke-width:0.30644819px;stroke-linecap:butt;stroke-linejoin:miter;stroke-opacity:1" />
      <path
         sodipodi:nodetypes="ccccc"
         inkscape:connector-curvature="0"
         id="bodyl-path4205"
         d="m 26.011368,315.75938 29.427128,3.99981 -8.475775,-5.90448 -3.237935,-0.8571 z"
         style="fill:#cbcbcb;fill-opacity:1;fill-rule:evenodd;stroke:#000000;stroke-width:0.30644819px;stroke-linecap:butt;stroke-linejoin:miter;stroke-opacity:1" />
      <path
         sodipodi:nodetypes="cccccc"
         inkscape:connector-curvature="0"
         id="bodyl-path4207"
         d="m 25.439967,316.33078 4.190271,5.14261 -4.095037,0.5714 -8.285308,-1.7142 2.285602,-7.04728 z"
         style="fill:#cbcbcb;fill-opacity:1;fill-rule:evenodd;stroke:#000000;stroke-width:0.30644819px;stroke-linecap:butt;stroke-linejoin:miter;stroke-opacity:1" />
      <path
         sodipodi:nodetypes="cccccc"
         inkscape:connector-curvature="0"
         id="bodyl-path4209"
         d="m 19.154562,312.90238 -2.380836,7.23774 -4.666438,-2.38084 -4.761671,-3.4284 8.475775,-4.76167 z"
         style="fill:#cbcbcb;fill-opacity:1;fill-rule:evenodd;stroke:#000000;stroke-width:0.30644819px;stroke-linecap:butt;stroke-linejoin:miter;stroke-opacity:1" />
      <path
         sodipodi:nodetypes="cccccc"
         inkscape:connector-curvature="0"
         id="bodyl-path4211"
         d="m 6.8694501,313.85471 8.6662419,-4.76167 0,-3.23794 -11.0470774,-3.1427 -0.2857003,2.85701 z"
         style="fill:#cbcbcb;fill-opacity:1;fill-rule:evenodd;stroke:#000000;stroke-width:0.30644819px;stroke-linecap:butt;stroke-linejoin:miter;stroke-opacity:1" />
      <path
         sodipodi:nodetypes="ccccccc"
         inkscape:connector-curvature="0"
         id="bodyl-path4213"
         d="m 15.345225,305.18847 2.476069,-1.9999 -7.523441,-8.28531 -2.9522357,2.85701 -1.6189682,2.857 -0.8571008,1.52373 z"
         style="fill:#cbcbcb;fill-opacity:1;fill-rule:evenodd;stroke:#000000;stroke-width:0.30644819px;stroke-linecap:butt;stroke-linejoin:miter;stroke-opacity:1" />
      <path
         sodipodi:nodetypes="ccccccc"
         inkscape:connector-curvature="0"
         id="bodyl-path4215"
         d="m 18.202227,302.90287 5.333072,-0.95234 -4.380737,-11.23754 -3.04747,0.66664 -3.523637,1.80943 -1.809435,1.4285 z"
         style="fill:#cbcbcb;fill-opacity:1;fill-rule:evenodd;stroke:#000000;stroke-width:0.30644819px;stroke-linecap:butt;stroke-linejoin:miter;stroke-opacity:1" />
      <path
         sodipodi:nodetypes="ccccccc"
         inkscape:connector-curvature="0"
         id="bodyl-path4217"
         d="m 19.630728,290.42729 4.380738,11.33278 3.523637,0.5714 1.333268,-0.95234 0,-12.09464 -4.952138,0.0952 z"
         style="fill:#cbcbcb;fill-opacity:1;fill-rule:evenodd;stroke:#000000;stroke-width:0.30644819px;stroke-linecap:butt;stroke-linejoin:miter;stroke-opacity:1" />
      <path
         sodipodi:nodetypes="cccccccc"
         inkscape:connector-curvature="0"
         id="bodyl-path4219"
         d="m 29.344538,289.28449 0,12.47558 2.095135,0.95233 3.90457,0.8571 0.952334,-0.76186 4.285503,-12.85652 -1.618966,-0.8571 z"
         style="fill:#cbcbcb;fill-opacity:1;fill-rule:evenodd;stroke:#000000;stroke-width:0.30644819px;stroke-linecap:butt;stroke-linejoin:miter;stroke-opacity:1" />
      <path
         style="fill:#e4e4e4;fill-opacity:1;fill-rule:evenodd;stroke:#000000;stroke-width:0.30644819px;stroke-linecap:butt;stroke-linejoin:miter;stroke-opacity:1"
         d="m 41.585938,290.13347 c -0.20599,-0.006 -0.413742,-0.003 -0.623047,0.008 l -4.38086,12.95118 6,2.66796 33.998047,-3.33398 c 0.78262,-0.59969 1.59886,-2.39346 -2,-2.85742 l -3.71289,-0.47461 c -0.985192,-1.67433 -2.894015,-1.87246 -5.142579,-1.52539 -0.843066,-1.12387 -2.20808,-1.37813 -3.810547,-1.23633 -0.768265,-0.97768 -2.247536,-1.2448 -4.285156,-0.95313 -1.238035,-1.31262 -2.476808,-1.13035 -3.714844,-1.23828 -1.015823,-1.12328 -2.031051,-1.08402 -3.046874,-1.23828 -2.424349,-1.59988 -3.798576,-1.36152 -5.238282,-1.23828 -1.243104,-1.03412 -2.601042,-1.49124 -4.042968,-1.53125 z m 12.03125,6.59375 c 1.26878,-0.0466 3.413548,1.47571 3.587007,1.8727 0.435135,0.87672 -0.02047,0.42632 -1.073336,1.05504 l -1.61914,0.28711 c -3.145679,-0.18474 -3.82908,-1.7565 -2.953125,-2.85742 0.532404,-0.21387 1.297325,-0.32946 2.058594,-0.35743 z"
         id="bodyu-path4221"
         inkscape:connector-curvature="0"
         sodipodi:nodetypes="sccccccccccccssccccs" />
      <path
         style="fill:#cbcbcb;fill-opacity:1;fill-rule:evenodd;stroke:#000000;stroke-width:0.30644819px;stroke-linecap:butt;stroke-linejoin:miter;stroke-opacity:1"
         d="m 41.248047,290.8073 -4.189453,12 5.904297,2.38086 28.285156,-5.42773 z m 12.369141,5.91992 c 1.26878,-0.0466 2.896813,1.25049 3.070272,1.64748 0.435135,0.87672 0.49627,0.65154 -0.556601,1.28026 l -1.61914,0.28711 c -3.145679,-0.18474 -3.82908,-1.7565 -2.953125,-2.85742 0.532404,-0.21387 1.297325,-0.32946 2.058594,-0.35743 z"
         id="bodyl-path4223"
         inkscape:connector-curvature="0"
         sodipodi:nodetypes="cccccsccccs" />
      <path
         sodipodi:nodetypes="cccc"
         inkscape:connector-curvature="0"
         id="bodyp-path4227"
         d="m 23.916233,302.04577 9.237641,9.14241 18.66575,-2.19037 3.52364,2.19037"
         style="fill:none;fill-opacity:1;fill-rule:evenodd;stroke:#cbcbcb;stroke-width:0.9193446;stroke-linecap:round;stroke-linejoin:round;stroke-miterlimit:4;stroke-dasharray:none;stroke-opacity:1" />
      <path
         sodipodi:nodetypes="cccc"
         inkscape:connector-curvature="0"
         id="bodyp-path4229"
         d="m 28.86837,301.8553 5.523539,6.38064 19.903786,-1.90467 3.999802,2.2856"
         style="fill:none;fill-opacity:1;fill-rule:evenodd;stroke:#cbcbcb;stroke-width:0.9193446;stroke-linecap:round;stroke-linejoin:round;stroke-miterlimit:4;stroke-dasharray:none;stroke-opacity:1" />
      <path
         sodipodi:nodetypes="cccc"
         inkscape:connector-curvature="0"
         id="bodyp-path4231"
         d="m 73.723313,298.7126 c 13.106308,-10.1398 6.313853,-17.41279 3.999802,-20.18949 -5.242658,-6.79711 -16.781021,-7.40655 -24.76069,-4.47597 -14.892175,6.98743 -27.89913,6.66203 -38.474301,1.7142"
         style="fill:none;fill-opacity:1;fill-rule:evenodd;stroke:#cbcbcb;stroke-width:0.61289638;stroke-linecap:round;stroke-linejoin:round;stroke-miterlimit:4;stroke-dasharray:none;stroke-opacity:1" />
      <path
         sodipodi:nodetypes="cccc"
         inkscape:connector-curvature="0"
         id="bodyp-path4233"
         d="m 74.104246,298.52213 c 8.997203,-7.75252 7.678069,-13.40356 3.047468,-18.38005 -8.108294,-7.32016 -16.732586,-4.56074 -25.33209,-2.2856 -18.558631,5.90959 -31.122884,5.33537 -38.093368,-0.38093"
         style="fill:none;fill-opacity:1;fill-rule:evenodd;stroke:#cbcbcb;stroke-width:0.61289638;stroke-linecap:round;stroke-linejoin:miter;stroke-miterlimit:4;stroke-dasharray:none;stroke-opacity:1" />
      <path
         sodipodi:nodetypes="ccccccccccccc"
         inkscape:connector-curvature="0"
         id="bodyl-path4138"
         d="m 58.777965,312.22977 6.201933,0 0,-6.20194 6.201939,0 0,6.20194 6.201936,0 0,6.20194 -6.201936,0 0,6.20194 -6.201939,0 0,-6.20194 -6.201932,0 z"
         style="display:inline;fill:#cbcbcb;fill-opacity:1;fill-rule:evenodd;stroke:#000000;stroke-width:0.61399168px;stroke-linecap:butt;stroke-linejoin:miter;stroke-opacity:1" />
      <path
         sodipodi:nodetypes="ccccccccccccc"
         inkscape:connector-curvature="0"
         id="bodyl-path4138-6"
         d="m 78.697098,312.22977 6.201936,0 0,-6.20194 6.201934,0 0,6.20194 6.201933,0 0,6.20194 -6.201933,0 0,6.20194 -6.201934,0 0,-6.20194 -6.201936,0 z"
         style="display:inline;fill:#cbcbcb;fill-opacity:1;fill-rule:evenodd;stroke:#000000;stroke-width:0.61399168px;stroke-linecap:butt;stroke-linejoin:miter;stroke-opacity:1" />
    </g>
  </g>
</svg>
