<?xml version="1.0" encoding="UTF-8" standalone="no"?>
<!-- Created with Inkscape (http://www.inkscape.org/) -->

<svg
   xmlns:dc="http://purl.org/dc/elements/1.1/"
   xmlns:cc="http://creativecommons.org/ns#"
   xmlns:rdf="http://www.w3.org/1999/02/22-rdf-syntax-ns#"
   xmlns:svg="http://www.w3.org/2000/svg"
   xmlns="http://www.w3.org/2000/svg"
   xmlns:sodipodi="http://sodipodi.sourceforge.net/DTD/sodipodi-0.dtd"
   xmlns:inkscape="http://www.inkscape.org/namespaces/inkscape"
   width="100"
   height="100"
   viewBox="0 0 100 100"
   id="svg2"
   version="1.1"
   inkscape:version="0.91 r13725"
   sodipodi:docname="flat.svg">
  <defs
     id="defs4" />
  <sodipodi:namedview
     id="base"
     pagecolor="#ffffff"
     bordercolor="#666666"
     borderopacity="1.0"
     inkscape:pageopacity="0.0"
     inkscape:pageshadow="2"
     inkscape:zoom="11.2"
     inkscape:cx="37.660136"
     inkscape:cy="46.682273"
     inkscape:document-units="px"
     inkscape:current-layer="layer2"
     showgrid="false"
     units="px"
     inkscape:window-width="1864"
     inkscape:window-height="1224"
     inkscape:window-x="856"
     inkscape:window-y="121"
     inkscape:window-maximized="0"
     inkscape:snap-others="true"
     inkscape:snap-global="false" />
  <metadata
     id="metadata7">
    <rdf:RDF>
      <cc:Work
         rdf:about="">
        <dc:format>image/svg+xml</dc:format>
        <dc:type
           rdf:resource="http://purl.org/dc/dcmitype/StillImage" />
        <dc:title></dc:title>
      </cc:Work>
    </rdf:RDF>
  </metadata>
  <g
     inkscape:groupmode="layer"
     id="layer2"
     inkscape:label="pictogramset"
     style="display:inline">
    <g
       inkscape:groupmode="layer"
       id="layer3"
       inkscape:label="bg"
       style="display:inline">
      <rect
         x="0"
         y="0.025405884"
         style="fill:#bfbfbf;fill-opacity:1"
         width="99.974594"
         height="99.974594"
         id="rect_bg"
         inkscape:label="rect_iconset_bg"
         ry="3.5714285" />
    </g>
    <g
       inkscape:groupmode="layer"
       id="layer10"
       inkscape:label="email-flat_fg"
       style="display:none">
      <g
         transform="matrix(0.42714634,0,0,0.42714634,0.93312106,1.5677579)"
         id="path_email"
         style="fill:#ffffff;fill-opacity:1"
         inkscape:label="path-email">
        <path
           inkscape:connector-curvature="0"
           d="m 230,49.585 c 0,-0.263 0.181,-0.519 0.169,-0.779 l -70.24,67.68 70.156,65.518 c 0.041,-0.468 -0.085,-0.94 -0.085,-1.418 l 0,-131.001 z"
           id="path5-9"
           style="fill:#ffffff;fill-opacity:1" />
        <path
           inkscape:connector-curvature="0"
           d="m 149.207,126.901 -28.674,27.588 c -1.451,1.396 -3.325,2.096 -5.2,2.096 -1.836,0 -3.672,-0.67 -5.113,-2.013 L 81.624,127.925 11.01,195.989 c 1.717,0.617 3.56,1.096 5.49,1.096 l 197.667,0 c 2.866,0 5.554,-0.873 7.891,-2.175 l -72.851,-68.009 z"
           id="path7-9"
           style="fill:#ffffff;fill-opacity:1" />
        <path
           inkscape:connector-curvature="0"
           d="M 115.251,138.757 222.447,35.496 c -2.427,-1.443 -5.252,-2.411 -8.28,-2.411 l -197.667,0 c -3.943,0 -7.556,1.531 -10.37,3.866 l 109.121,101.806 z"
           id="path9-1"
           style="fill:#ffffff;fill-opacity:1" />
        <path
           inkscape:connector-curvature="0"
           d="m 0,52.1 0,128.484 c 0,1.475 0.339,2.897 0.707,4.256 L 70.445,117.684 0,52.1 Z"
           id="path11-6"
           style="fill:#ffffff;fill-opacity:1" />
      </g>
    </g>
    <g
       style="display:none"
       inkscape:label="skype-flat_fg"
       id="g3573"
       inkscape:groupmode="layer">
      <g
         id="path_skype"
         style="display:inline"
         inkscape:label="path-skype"
         transform="matrix(0.30718317,0,0,0.30718317,-28.078662,-28.455047)">
        <path
           id="path3579"
           d="m 390.711,278.349 c -4.651,-6.428 -6.803,-14.276 -6.796,-22.206 0,-0.047 0,-0.093 0,-0.14 0,-70.647 -57.27,-127.917 -127.914,-127.917 -15.458,0 -30.267,2.751 -43.979,7.777 -7.416,2.72 -15.544,3.241 -23.149,1.1 -6.716,-1.891 -13.895,-2.691 -21.33,-2.177 -31.229,2.15 -56.37,27.743 -57.99,59.006 -0.771,14.922 3.701,28.763 11.736,39.864 4.646,6.428 6.803,14.276 6.796,22.211 l 0,0.14 c 0,70.644 57.266,127.914 127.914,127.914 15.458,0 30.267,-2.748 43.979,-7.777 7.416,-2.72 15.544,-3.241 23.149,-1.1 6.716,1.895 13.895,2.691 21.33,2.181 31.229,-2.148 56.37,-27.743 57.99,-59.004 0.771,-14.927 -3.701,-28.769 -11.736,-39.872 l 0,0 z M 260.684,233.067 c 25.791,6.135 64.765,15.405 64.765,58.337 0,21.147 -10.416,37.283 -29.327,45.428 -13.495,5.811 -28.77,6.596 -41.934,6.596 -40.45,0 -65.993,-31.451 -67.065,-32.79 -6.625,-8.307 -5.261,-20.414 3.048,-27.039 8.309,-6.625 20.416,-5.261 27.039,3.048 0.057,0.069 15.336,17.618 36.976,18.303 26.057,0.824 32.011,-6.928 32.782,-13.545 0.941,-8.083 -6.249,-14.015 -35.192,-20.901 -24.535,-5.832 -61.611,-14.651 -61.611,-54.189 0,-12.314 5.008,-52.488 69.448,-52.488 40.691,0 64.712,32.035 65.715,33.399 6.292,8.563 4.455,20.604 -4.108,26.898 -8.523,6.266 -20.49,4.475 -26.808,-3.984 -0.453,-0.581 -14.202,-15.879 -34.799,-17.834 -15.582,-1.481 -30.968,4.141 -30.968,12.441 0.004,8.794 4.422,11.752 32.039,18.32 l 0,0 z"
           style="fill:#ffffff"
           inkscape:connector-curvature="0" />
      </g>
    </g>
    <g
       inkscape:groupmode="layer"
       id="layer4"
       inkscape:label="telegram-flat_fg"
       style="display:none">
      <path
         inkscape:connector-curvature="0"
         style="fill:#ffffff"
         d="M 90.289549,9.9529362 5.1908201,43.114996 c -2.7563536,1.07423 -2.5893694,5.02965 0.2479673,5.86735 l 21.6245006,6.3856 8.070261,25.6078 c 0.843023,2.6748 4.232696,3.4857 6.194905,1.4822 l 11.180425,-11.4159 21.936965,16.1024 c 2.684598,1.970598 6.507928,0.5065 7.189549,-2.7531 l 14.52905,-69.46321 c 0.711499,-3.40253 -2.63601,-6.2373598 -5.874894,-4.9751998 z M 79.62041,25.368566 40.092545,60.322946 c -0.394006,0.3486 -0.644761,0.8307 -0.703402,1.3536 l -1.521856,13.5284 c -0.04966,0.4412 -0.6671,0.4996 -0.798889,0.075 l -6.261365,-20.1758 c -0.286787,-0.9237 0.08712,-1.9245 0.908917,-2.4341 l 46.678323,-28.9503 c 1.073393,-0.66626 2.172476,0.81147 1.226137,1.64807 z"
         id="path_telegram"
         inkscape:label="path-telegram" />
    </g>
    <g
       inkscape:groupmode="layer"
       id="g4460"
       inkscape:label="linkedin-flat_fg"
       style="display:none">
      <g
         style="font-style:normal;font-weight:normal;font-size:57.94237137px;line-height:125%;font-family:sans-serif;letter-spacing:0px;word-spacing:0px;fill:#ffffff;fill-opacity:1;stroke:none;stroke-width:1px;stroke-linecap:butt;stroke-linejoin:miter;stroke-opacity:1"
         id="text_linkedin">
        <path
           d="m 29.891411,34.06389 -5.388641,0 -15.296786,2.520493 0,7.039998 1.825185,0.173827 c 3.737283,0.347654 4.780245,1.825185 4.780245,7.126912 l 0,12.515552 c 0,4.954073 -0.521481,5.910122 -3.824196,6.605431 l -2.781234,0.608395 0,7.039998 27.203944,0 0,-7.039998 -2.69432,-0.608395 c -3.302716,-0.782222 -3.824197,-1.651358 -3.824197,-6.605431 l 0,-29.376782 z m -7.56148,-19.816292 c -4.606418,0 -8.604442,3.91111 -8.604442,8.517529 0,4.606419 3.65037,8.343702 8.256788,8.343702 4.693332,0 8.604443,-3.911111 8.604443,-8.604443 0,-4.606418 -3.563456,-8.256788 -8.256789,-8.256788 z"
           style="font-style:normal;font-variant:normal;font-weight:bold;font-stretch:normal;font-size:86.91355896px;font-family:'URW Bookman L';-inkscape-font-specification:'URW Bookman L Bold';fill:#ffffff;fill-opacity:1"
           id="path4872"
           inkscape:connector-curvature="0" />
        <path
           d="m 59.3877,34.06389 -5.388641,0 -13.558515,2.520493 0,7.039998 1.564444,0.173827 c 3.824197,0.434568 4.780246,1.825185 4.780246,7.126912 l 0,12.515552 c 0,4.954073 -0.521482,5.823209 -3.824197,6.605431 l -2.520493,0.608395 0,7.039998 25.813327,0 0,-7.039998 -1.564444,-0.434568 C 61.386712,69.263881 60.86523,68.394745 60.86523,63.440672 l 0,-16.948144 c 3.476543,-2.346666 7.300739,-3.824196 9.908146,-3.824196 2.607407,0 3.91111,1.912098 3.91111,5.562468 l 0,15.209872 c 0,4.954073 -0.521481,5.823209 -3.824196,6.779258 l -1.564444,0.434568 0,7.039998 25.90024,0 0,-7.039998 -2.607407,-0.608395 c -3.302715,-0.782222 -3.824196,-1.651358 -3.824196,-6.605431 l 0,-16.339749 c 0,-4.693332 -0.782222,-7.126911 -3.215802,-9.734318 -2.607407,-2.868148 -5.649381,-4.084937 -10.342713,-4.084937 -5.475555,0 -10.168887,1.390616 -15.818268,4.519505 l 0,-3.737283 z"
           style="font-style:normal;font-variant:normal;font-weight:bold;font-stretch:normal;font-size:86.91355896px;font-family:'URW Bookman L';-inkscape-font-specification:'URW Bookman L Bold';fill:#ffffff;fill-opacity:1"
           id="path4874"
           inkscape:connector-curvature="0" />
      </g>
    </g>
    <g
       inkscape:groupmode="layer"
       id="layer1"
       inkscape:label="twitter-flat_fg"
       style="display:none">
      <path
         style="fill:#ffffff;fill-opacity:1;fill-rule:evenodd;stroke:#ffffff;stroke-width:1;stroke-linecap:butt;stroke-linejoin:miter;stroke-miterlimit:4;stroke-dasharray:none;stroke-opacity:1"
         d="M 9.1071429,17.678571 C 20.244848,29.132218 34.900482,36.147855 52.053572,37.589286 49.692407,25.378095 53.929063,18.537221 61.785714,14.642857 c 6.870184,-3.161589 14.237322,-2.986489 22.767858,5 l 8.392857,-3.214286 -4.285715,7.5 L 95,23.392857 88.125,30.357143 C 87.339395,43.378488 86.892078,56.322193 71.964286,72.589286 61.448339,83.040295 48.103226,87.967693 32.589286,88.660715 23.090284,88.681448 15.005337,86.645376 8.125,82.857143 19.81255,82.432444 27.075697,78.004712 33.839286,73.125 22.790941,69.864431 17.475499,65.457281 14.732143,60.535714 L 25,60.357143 C 14.335942,55.008574 8.6701385,48.562826 7.7678572,41.071428 L 15.625,44.196429 C 7.9369114,33.396087 6.0828987,24.670083 9.1071429,17.678571 Z"
         id="path4151"
         inkscape:connector-curvature="0"
         sodipodi:nodetypes="ccccccccccccccccc" />
    </g>
    <g
       inkscape:groupmode="layer"
       id="layer5"
       inkscape:label="github-flat_bg"
       style="display:none">
      <g
         id="g4261"
         transform="matrix(1.4767849,0,0,1.4767849,-25.986722,-28.794845)">
        <path
           sodipodi:nodetypes="cc"
           inkscape:connector-curvature="0"
           id="path4157"
           d="m 31.440998,53.027907 c -4.149928,-0.124078 -7.801447,0.12565 -10.606602,1.010152"
           style="display:inline;fill:none;fill-rule:evenodd;stroke:#ffffff;stroke-width:0.30000001;stroke-linecap:butt;stroke-linejoin:miter;stroke-miterlimit:4;stroke-dasharray:none;stroke-opacity:1" />
        <path
           sodipodi:nodetypes="cc"
           inkscape:connector-curvature="0"
           id="path4159"
           d="m 71.468293,51.386409 c 3.800962,-0.09707 7.394468,0.01332 10.859139,0.252538"
           style="display:inline;fill:none;fill-rule:evenodd;stroke:#ffffff;stroke-width:0.30000001;stroke-linecap:butt;stroke-linejoin:miter;stroke-miterlimit:4;stroke-dasharray:none;stroke-opacity:1" />
        <path
           sodipodi:nodetypes="cc"
           inkscape:connector-curvature="0"
           id="path4161"
           d="M 70.710678,53.027907 C 75.52198,52.76883 78.490769,53.43101 81.31728,54.164328"
           style="display:inline;fill:none;fill-rule:evenodd;stroke:#ffffff;stroke-width:0.30000001;stroke-linecap:butt;stroke-linejoin:miter;stroke-miterlimit:4;stroke-dasharray:none;stroke-opacity:1" />
        <path
           id="path4153"
           d="m 33.208984,25.375 c -0.587896,3.114637 -0.799647,6.229113 -0.378906,9.34375 -2.281269,2.373844 -4.286109,5.2309 -3.914062,12.248047 1.906111,10.336651 8.460815,13.014882 16.035156,14.015625 -0.999064,1.012416 -1.862748,2.567681 -2.525391,4.925781 -1.232592,-0.06617 -2.116858,-0.152063 -3.708984,-0.189453 -2.240714,-0.325258 -4.045286,-0.665165 -5.003906,-2.083984 -1.286199,-2.138233 -3.429869,-3.204475 -6.060547,-3.66211 2.006129,1.120857 3.628864,4.799404 4.167968,5.429688 0.602712,0.896645 4.774967,5.10902 7.449219,4.798828 l 3.410157,0 c -0.08322,3.367559 0.719861,7.08866 -0.884766,9.847656 1.787151,0.279954 3.048946,-0.756117 4.167969,-2.146484 0.352124,-3.328845 0.194936,-9.689222 0.882812,-10.984375 0.531435,3.542123 0.813036,8.505719 -0.378906,13.384765 1.38896,-0.124004 2.779009,-0.162835 4.167969,-1.263672 0.06345,-3.661803 -0.105484,-11.616116 0.630859,-12.5 0.718205,0.928658 0.486817,8.989855 0.630859,11.617188 1.441356,1.958463 3.148615,2.316214 4.923828,2.271484 -1.767766,-1.388959 -1.43622,-11.940864 -0.882812,-13.888672 0.769813,0.842822 0.433632,9.170998 1.009766,11.111329 1.00903,2.201014 2.700969,2.073042 4.419922,1.894531 -1.783311,-2.436021 -1.173759,-5.87842 -1.136719,-8.712891 -0.0375,-1.16562 0.569151,-6.534503 -1.894531,-9.34375 11.3078,-2.993424 14.750445,-8.762787 14.648437,-15.783203 -0.191302,-5.943959 -1.619826,-9.040142 -4.167969,-11.617187 0.0096,-6.049543 -0.463174,-6.313908 -0.757812,-8.712891 -3.447741,0.615721 -6.440529,1.912225 -9.216797,3.535156 C 53.332822,27.643572 47.976999,27.610394 42.804688,29.037109 39.453108,27.205453 36.224431,25.862126 33.208984,25.375 Z m -2.242187,35.964844 a 0.50518268,0.41655415 23.321345 0 1 0.228515,0.04883 0.50518268,0.41655415 23.321345 0 1 0.298829,0.583984 0.50518268,0.41655415 23.321345 0 1 -0.628907,0.181641 0.50518268,0.41655415 23.321345 0 1 -0.298828,-0.582031 0.50518268,0.41655415 23.321345 0 1 0.400391,-0.232422 z M 31.875,62.060547 a 0.57907254,0.47748089 46.425235 0 1 0.480469,0.203125 0.57907254,0.47748089 46.425235 0 1 0.05273,0.748047 0.57907254,0.47748089 46.425235 0 1 -0.744141,-0.08984 0.57907254,0.47748089 46.425235 0 1 -0.05469,-0.748047 0.57907254,0.47748089 46.425235 0 1 0.265625,-0.113281 z m 0.851562,1.041015 a 0.57907254,0.47748089 46.425235 0 1 0.480469,0.203126 0.57907254,0.47748089 46.425235 0 1 0.05273,0.75 0.57907254,0.47748089 46.425235 0 1 -0.744141,-0.0918 0.57907254,0.47748089 46.425235 0 1 -0.05273,-0.748047 0.57907254,0.47748089 46.425235 0 1 0.263671,-0.113282 z m 0.828126,1.101563 a 0.6136806,0.50601739 30.570494 0 1 0.384765,0.09961 0.6136806,0.50601739 30.570494 0 1 0.271485,0.748047 0.6136806,0.50601739 30.570494 0 1 -0.785157,0.125 0.6136806,0.50601739 30.570494 0 1 -0.271484,-0.748047 0.6136806,0.50601739 30.570494 0 1 0.400391,-0.224609 z m 1.191406,0.826172 a 0.59598237,0.49142411 14.002933 0 1 0.160156,0.02148 0.59598237,0.49142411 14.002933 0 1 0.458984,0.621094 0.59598237,0.49142411 14.002933 0 1 -0.697265,0.333984 0.59598237,0.49142411 14.002933 0 1 -0.458985,-0.621093 0.59598237,0.49142411 14.002933 0 1 0.478516,-0.353516 0.59598237,0.49142411 14.002933 0 1 0.05859,-0.002 z m 1.318359,0.505859 a 0.70928252,0.58484703 14.002933 0 1 0.189453,0.02539 0.70928252,0.58484703 14.002933 0 1 0.546875,0.740234 0.70928252,0.58484703 14.002933 0 1 -0.830078,0.394531 0.70928252,0.58484703 14.002933 0 1 -0.546875,-0.738281 0.70928252,0.58484703 14.002933 0 1 0.640625,-0.421875 z m 1.603516,0.347656 a 0.78481597,0.647129 14.002933 0 1 0.002,0 0.78481597,0.647129 14.002933 0 1 0.208984,0.02734 0.78481597,0.647129 14.002933 0 1 0.605469,0.81836 0.78481597,0.647129 14.002933 0 1 -0.917969,0.4375 0.78481597,0.647129 14.002933 0 1 -0.605468,-0.816407 0.78481597,0.647129 14.002933 0 1 0.707031,-0.466797 z m 1.804687,0.228516 a 0.86138338,0.71026355 3.5531836 0 1 0.002,0 0.86138338,0.71026355 3.5531836 0 1 0.06055,0.002 0.86138338,0.71026355 3.5531836 0 1 0.814453,0.763672 0.86138338,0.71026355 3.5531836 0 1 -0.902343,0.654297 0.86138338,0.71026355 3.5531836 0 1 -0.816407,-0.761719 0.86138338,0.71026355 3.5531836 0 1 0.841797,-0.658203 z m 1.958985,0.04883 a 0.89966708,0.74183083 0 0 1 0.90039,0.742188 0.89966708,0.74183083 0 0 1 -0.90039,0.740234 0.89966708,0.74183083 0 0 1 -0.898438,-0.740234 0.89966708,0.74183083 0 0 1 0.898438,-0.742188 z"
           style="fill:#ffffff;fill-opacity:1;fill-rule:evenodd;stroke:none;stroke-width:0.2;stroke-linecap:butt;stroke-linejoin:miter;stroke-miterlimit:4;stroke-dasharray:none;stroke-opacity:0.12608696"
           inkscape:connector-curvature="0" />
        <path
           sodipodi:nodetypes="cc"
           inkscape:connector-curvature="0"
           id="path4155"
           d="M 30.557114,51.512678 C 27.189939,51.061153 23.822764,51.024865 20.32932,51.638947"
           style="fill:none;fill-rule:evenodd;stroke:#ffffff;stroke-width:0.30000001;stroke-linecap:butt;stroke-linejoin:miter;stroke-miterlimit:4;stroke-dasharray:none;stroke-opacity:1" />
      </g>
    </g>
  </g>
</svg>
