<?xml version="1.0" encoding="UTF-8" standalone="no"?>
<svg
   xmlns:osb="http://www.openswatchbook.org/uri/2009/osb"
   xmlns:dc="http://purl.org/dc/elements/1.1/"
   xmlns:cc="http://creativecommons.org/ns#"
   xmlns:rdf="http://www.w3.org/1999/02/22-rdf-syntax-ns#"
   xmlns:svg="http://www.w3.org/2000/svg"
   xmlns="http://www.w3.org/2000/svg"
   xmlns:sodipodi="http://sodipodi.sourceforge.net/DTD/sodipodi-0.dtd"
   xmlns:inkscape="http://www.inkscape.org/namespaces/inkscape"
   class="logo-abbr-short w-[29px]"
   viewBox="0 0 64 64"
   id="svg2"
   version="1.1"
   inkscape:version="0.91 r13725"
   sodipodi:docname="jnj.svg"
   width="100%"
   height="100%">
  <title
     id="title4538">jnj logo</title>
  <metadata
     id="metadata10">
    <rdf:RDF>
      <cc:Work
         rdf:about="">
        <dc:format>image/svg+xml</dc:format>
        <dc:type
           rdf:resource="http://purl.org/dc/dcmitype/StillImage" />
        <dc:title>jnj logo</dc:title>
        <cc:license
           rdf:resource="" />
      </cc:Work>
    </rdf:RDF>
  </metadata>
  <defs
     id="defs8">
    <linearGradient
       id="linearGradient4142"
       osb:paint="solid">
      <stop
         style="stop-color:#000000;stop-opacity:1;"
         offset="0"
         id="stop4144" />
    </linearGradient>
  </defs>
  <sodipodi:namedview
     pagecolor="#ffffff"
     bordercolor="#666666"
     borderopacity="1"
     objecttolerance="8"
     gridtolerance="10"
     guidetolerance="10"
     inkscape:pageopacity="0"
     inkscape:pageshadow="2"
     inkscape:window-width="1902"
     inkscape:window-height="1668"
     id="namedview6"
     showgrid="true"
     units="px"
     showborder="true"
     borderlayer="false"
     inkscape:showpageshadow="false"
     inkscape:zoom="12.817124"
     inkscape:cx="29.413821"
     inkscape:cy="34.861929"
     inkscape:window-x="1213"
     inkscape:window-y="44"
     inkscape:window-maximized="0"
     inkscape:current-layer="layer1"
     inkscape:snap-grids="true"
     inkscape:snap-page="false"
     inkscape:snap-bbox="true"
     inkscape:snap-others="true">
    <inkscape:grid
       type="xygrid"
       id="grid4136" />
  </sodipodi:namedview>
  <g
     inkscape:groupmode="layer"
     id="layer1"
     inkscape:label="bg"
     style="display:inline">
    <rect
       style="opacity:1;fill:#f9f9f9;fill-opacity:1;stroke:#dcdcdc;stroke-opacity:1"
       id="rect4136"
       width="62.950821"
       height="62.950821"
       x="0.5245899"
       y="0.52459037"
       ry="0.17311476" />
  </g>
  <g
     inkscape:groupmode="layer"
     id="layer2"
     inkscape:label="letters"
     style="display:inline">
    <path
       d="m 53.849981,48.364321 c 5.81775,0 8.110403,-1.926906 8.081137,-10.309819 l 0,-21.649031 -4.31936,0 0,23.077662 c 0,5.720105 -1.114754,5.980567 -3.761777,5.980567 -2.647231,0 -3.761984,-2.365746 -3.761984,-6.428852 l 0,-4.285821 -4.31936,1.382196 0,1.920371 c 0,5.847479 2.263387,10.30982 8.081344,10.30982 M 30.860976,45.102303 c -3.344468,0 -5.398167,-3.481961 -5.398167,-7.18651 0,-2.322287 0.801152,-4.462274 2.123734,-5.668184 l 7.210462,11.024019 c -1.462236,1.11654 -2.439913,1.830839 -3.936029,1.830839 z m 4.215447,-15.980877 c 2.82097,0 2.580792,3.223492 2.580792,6.841385 0,1.607989 0.973874,2.132438 0.206602,3.650537 l -6.165744,-9.641695 c 1.218669,-0.624763 2.403457,-0.847288 3.37835,-0.847288 m -4.215447,-11.07032 c 2.055766,0 3.274435,1.518128 3.274435,4.285855 0,2.544813 -0.974894,4.953889 -3.378348,6.339091 l -1.498391,-2.142896 c -1.324647,-1.873969 -1.706009,-3.033646 -1.706009,-4.418881 0,-2.588271 1.288494,-4.063169 3.308313,-4.063169 z m 8.081647,23.077626 c 2.981054,1.3688 3.621614,-3.915243 3.621614,-3.915243 0,0 1.307598,-11.302845 -3.461835,-11.302845 -1.462236,0 -4.201992,1.380236 -5.280594,1.915144 l -0.07003,-0.179719 c 2.647023,-1.830513 3.761982,-3.525286 3.761982,-5.890903 0,-3.392233 -2.369573,-6.070167 -6.549073,-6.070167 -4.806705,0 -7.174007,3.43566 -7.174007,7.721484 0,2.322287 0.767273,4.641567 2.787092,7.455401 l 0.03389,0.0882 c -3.414502,2.096823 -4.980611,5.488892 -4.980611,8.970787 0,4.598209 2.750897,8.435847 7.000223,8.435847 2.437337,0 4.633472,-1.295605 7.210669,-3.614887 l 2.089647,2.900656 5.467995,0 0,-0.22222 -4.459221,-6.292886 z m -28.84104,7.229775 c 5.81777,0 8.081219,-1.644911 8.081219,-10.30982 l 0,-21.646155 -4.319298,0 0,23.077662 c 0,3.747942 -1.114815,5.980567 -3.761921,5.980567 -2.6471054,0 -3.7619209,-2.365746 -3.7619209,-6.428852 l 0,-4.285821 -4.3193191,1.382196 0,1.920371 c 0,5.847479 2.2634703,10.30982 8.08124,10.30982 z"
       id="path4"
       style="opacity:1;fill:#eb1700"
       inkscape:connector-curvature="0"
       sodipodi:nodetypes="csccsssccscssccscscccssccssccsccsssccssccccccsscccssccss" />
  </g>
</svg>
