<?xml version="1.0" encoding="UTF-8" standalone="no"?>
<svg
   xmlns:dc="http://purl.org/dc/elements/1.1/"
   xmlns:cc="http://creativecommons.org/ns#"
   xmlns:rdf="http://www.w3.org/1999/02/22-rdf-syntax-ns#"
   xmlns:svg="http://www.w3.org/2000/svg"
   xmlns="http://www.w3.org/2000/svg"
   xmlns:sodipodi="http://sodipodi.sourceforge.net/DTD/sodipodi-0.dtd"
   xmlns:inkscape="http://www.inkscape.org/namespaces/inkscape"
   viewBox="0 0 180 180"
   fill="currentColor"
   id="svg2"
   version="1.1"
   inkscape:version="0.91 r13725"
   sodipodi:docname="lego.svg">
  <metadata
     id="metadata18">
    <rdf:RDF>
      <cc:Work
         rdf:about="">
        <dc:format>image/svg+xml</dc:format>
        <dc:type
           rdf:resource="http://purl.org/dc/dcmitype/StillImage" />
        <dc:title></dc:title>
      </cc:Work>
    </rdf:RDF>
  </metadata>
  <defs
     id="defs16" />
  <sodipodi:namedview
     pagecolor="#ffffff"
     bordercolor="#666666"
     borderopacity="1"
     objecttolerance="10"
     gridtolerance="10"
     guidetolerance="10"
     inkscape:pageopacity="0"
     inkscape:pageshadow="2"
     inkscape:window-width="2393"
     inkscape:window-height="1864"
     id="namedview14"
     showgrid="false"
     inkscape:zoom="4.0066012"
     inkscape:cx="62.782397"
     inkscape:cy="193.7992"
     inkscape:window-x="1201"
     inkscape:window-y="32"
     inkscape:window-maximized="0"
     inkscape:current-layer="layer3" />
  <g
     inkscape:groupmode="layer"
     id="layer1"
     inkscape:label="bg">
    <path
       d="M 0,180 0,0 180,0 179.997,179.997 0,180 Z m 177.52,-2.479 0.002,-175.043 -175.046,0 0.004,175.042 175.04,0 z"
       id="path10"
       inkscape:connector-curvature="0"
       style="clip-rule:evenodd;fill-rule:evenodd" />
    <path
       d="m 1.223,1.204 0,177.596 177.597,0 -0.001,-177.596 -177.596,0 z"
       id="path4"
       inkscape:connector-curvature="0"
       style="fill:#ffffff" />
  </g>
  <g
     inkscape:groupmode="layer"
     id="layer2"
     inkscape:label="contour"
     style="display:inline">
    <path
       d="m 1.223,178.60932 0,-177.595998 177.595,0 10e-4,177.595998 z M 163.394,91.866322 c 1.555,-4.606 3.316,-11.5 3.606,-17.033 0.221,-4.174 -0.341,-10.02 -4.278,-14.174 -3.141,-3.319 -7.94,-4.994 -14.264,-4.994 -7.989,0 -14.426,2.82 -19.136,8.397 l -1.243,1.466 -0.826,-1.734 c -0.674,-1.413 -1.156,-1.992 -1.89,-2.82 -3.219,-3.642 -8.617,-5.488 -16.044,-5.487 -6.63112,0.0922 -9.496283,2.368271 -12.541051,5.742 l -1.103,0.937 -0.76,-1.237 c -2.058,-3.345 -24.539695,0.591695 -30.416695,0.591695 -8.456,0.002 -9.551559,9.158474 -10.884999,21.459712 L 46.141271,89.455576 41.398,82.181051 c 6.162373,-12.081864 5.496017,-18.144814 4.045017,-19.680814 -1.596,-1.693 -3.519288,-1.943966 -7.447288,-1.940966 -10.344271,0.190678 -10.675034,2.705678 -14.018712,12.079593 -4.853,13.663017 -7.23978,23.716102 -10.985017,36.216456 -2.118136,9.00907 1.223085,12.29764 9.848085,12.49664 7.108,0.172 14.474101,-0.31725 20.732593,-2.41383 l 5.301593,-5.50227 2.214746,4.57488 c 3.226,3.502 4.697797,1.80912 10.378797,1.80912 7.234,0 12.847966,-0.15054 18.87978,-3.12015 l 4.211525,-4.88256 3.200135,3.40914 c 3.326,4.086 7.131254,4.32122 9.905373,4.29522 8.343003,-0.037 14.990883,-3.48969 20.231933,-10.13065 l 1.374,-1.741 0.767,2.083 c 3.23,8.783 8.17044,12.18946 13.10744,12.19246 16.765,0 24.005,-11.503 30.249,-30.058998 z"
       id="path6"
       inkscape:connector-curvature="0"
       style="clip-rule:evenodd;fill:#ffed00;fill-rule:evenodd"
       sodipodi:nodetypes="ccccccccsccccccccccccccccccccsccccscccc" />
    <path
       d="m 1.223,178.8 0,-177.596 177.595,0 10e-4,177.596 z m 163.283,-73.742 c 2.321,-4.784 6.688,-16.757 7.495,-23.222 l 0.009,-0.071 c 0.984,-7.892 1.915,-15.36 -3.41,-22.781 -3.786,-5.274 -10.237,-8.813 -20.052,-8.814 -7.419,0 -14.045,2.01 -19.343,6.416 -4.537,-4.49 -11.044,-6.528 -19.802,-6.526 -6.853,0 -12.605,1.567 -17.614,4.574 -3.636,-2.889 -15.912475,0.454305 -22.712475,0.454305 -6.164,-10e-4 -13.86461,0.510678 -18.296152,12.155373 C 49.843407,60.351119 49.25422,55.072949 40.79122,55.072949 32.99522,55.072949 28.542,53.994 24.371,60.841 18.802,69.736 13.845407,92.372153 8.6177458,107.35754 3.5037627,124.02224 15.429,127.295 26.903,127.568 c 6.895,0.161 12.767,-1.315 17.248,-4.289 4.052,2.92 9.23,4.497 14.984,4.497 6.886,0.001 13.098,-1.807 17.704,-5.053 4.173,3.308 9.648,5.096 15.842,5.096 8.036,0.003 15.503,-2.772 21.535,-8.051 4.114,5.246 11.162,7.973 19.721,7.974 16.023,10e-4 24.346,-9.854 30.569,-22.684 z"
       id="path8"
       inkscape:connector-curvature="0"
       style="clip-rule:evenodd;fill:#e3000b;fill-rule:evenodd"
       sodipodi:nodetypes="cccccccccccccccscccccccccc" />
  </g>
  <g
     inkscape:groupmode="layer"
     id="layer3"
     inkscape:label="text">
    <path
       style="clip-rule:evenodd;display:inline;fill:#000000;fill-opacity:1;fill-rule:evenodd"
       d="m 163.20707,91.995056 c 1.555,-4.606 3.316,-11.5 3.606,-17.033 0.221,-4.174 -0.341,-10.02 -4.278,-14.174 -3.141,-3.319 -7.94,-4.994 -14.264,-4.994 -7.989,0 -14.426,2.82 -19.136,8.397 l -1.243,1.466 -0.826,-1.734 c -0.674,-1.413 -1.156,-1.992 -1.89,-2.82 -3.219,-3.642 -8.617,-5.488 -16.044,-5.487 -6.63112,0.0922 -9.496278,2.368271 -12.541048,5.742 l -1.103,0.937 -0.76,-1.237 c -2.058,-3.345 -24.5397,0.591695 -30.416697,0.591695 -8.456,0.002 -9.551559,9.158474 -10.884999,21.459712 l -7.471984,6.474847 -4.743271,-7.274525 c 6.162373,-12.081864 5.496017,-18.144814 4.045017,-19.680814 -1.596,-1.693 -3.519288,-1.943966 -7.447288,-1.940966 -10.344271,0.190678 -10.675034,2.705678 -14.018712,12.079593 -4.853,13.663017 -7.23978,23.716102 -10.985017,36.216462 -2.118136,9.00907 1.223085,12.29764 9.848085,12.49664 7.108,0.172 14.474101,-0.31725 20.732593,-2.41383 l 5.301593,-5.50227 2.214746,4.57488 c 3.226,3.502 4.697797,1.80912 10.378797,1.80912 7.233997,0 12.847967,-0.15054 18.879777,-3.12015 l 4.21153,-4.88256 3.20013,3.40914 c 3.326,4.086 7.13126,4.32122 9.90538,4.29522 8.342998,-0.037 14.990878,-3.48969 20.231928,-10.13065 l 1.374,-1.741 0.767,2.083 c 3.23,8.783 8.17044,12.18946 13.10744,12.19246 16.765,0 24.005,-11.503 30.249,-30.059004 z"
       id="path6-3"
       inkscape:connector-curvature="0" />
    <path
       style="clip-rule:evenodd;display:inline;fill:#ffffff;fill-opacity:1;fill-rule:evenodd"
       d="m 109.79851,59.550136 c -6.63112,0.0922 -10.555729,3.251307 -13.600493,6.625037 -2.831537,4.52125 -4.821205,11.548289 -6.271525,16.99035 l -3.514792,0.28208 c -1.724322,-1.132631 -2.566917,-3.021028 -7.403877,-1.485684 l -12.61487,-0.02163 0.198305,-4.297123 1.17851,-3.949915 c 0,0 11.232346,1.030834 17.278989,-0.831057 6.046644,-1.861891 3.778439,-4.956144 3.629125,-7.871677 -2.058,-3.345 -17.687677,-0.114202 -23.21531,-0.114202 -7.953325,0.0018 -7.921609,10.07497 -9.175781,20.996094 l -3.439407,10.952028 -3.938583,0.968505 -8.061466,9.143928 c -6.984047,-2.31848 -12.521288,1.31676 -12.521288,1.31676 L 38.193041,83.2728 c 4.519254,-10.817095 3.911413,-15.616092 2.966797,-16.878906 -1.039013,-1.391892 -2.29244,-1.59817 -4.84961,-1.595704 -6.73423,0.156767 -6.94823,2.224916 -9.125,9.931641 -3.159354,11.232982 -7.077602,21.232047 -9.824218,32.423829 -1.553362,8.06597 0.897404,11.01128 7.222656,11.18945 5.212741,0.154 10.613381,-0.285 15.203125,-2.16211 1.802683,-0.007 3.292518,-1.26482 4.429687,-3.93359 0.25602,-4.01279 -1.508271,-4.65839 -3.193067,-5.43649 l 7.872343,-9.229393 4.307099,-0.579194 1.062453,17.141557 c 3.034227,3.1091 3.00437,2.49024 8.347657,2.49024 6.803965,0 11.545623,-0.59901 17.034073,-3.60124 l 3.234116,-7.9647 -19.394725,0.66169 0.934594,-5.879042 1.464925,-5.525491 c 0,0 11.510041,2.842873 17.021273,-2.520287 l 1.793835,-3.010079 0.678022,-5.082045 5.097439,-0.839403 c -1.99117,5.433752 -4.150687,10.800165 -3.858894,17.147097 -0.65557,5.79801 0.214785,10.28808 2.858621,13.25802 3.326,4.086 7.662384,2.90601 10.436504,2.88001 8.343004,-0.037 11.808574,-4.72703 17.049634,-11.36799 l 2.72975,-7.417738 c 0.89839,-4.108763 3.13401,-8.083802 -0.40289,-12.636092 l -10.486,0.118726 c -2.74733,-0.04587 -5.93314,1.343562 -5.92832,6.343299 1.09336,4.604691 7.13287,2.255714 7.13287,2.255714 0.0338,8.929411 -10.533533,14.679011 -13.647489,9.661431 -2.499486,-14.768321 6.394919,-32.582146 6.394919,-32.582146 1.97886,-2.014992 4.5938,-3.181885 7.98656,-3.311693 2.94503,0.49887 4.52538,1.301763 5.15812,4.112928 -0.9585,2.462178 -1.77932,4.380992 1.26904,8.178791 2.34024,2.133447 5.03403,-2.732031 7.37426,-3.524055 l 2.10074,1.42798 -5.77317,24.886225 c 4.11388,12.14176 7.89882,15.54812 15.75977,15.9043 10.4824,0 19.03756,-13.44974 20.52539,-22.103519 1.25101,-4.034889 4.90727,-11.500203 5.19727,-17.033203 0.221,-4.174 1.07371,-9.842094 -2.86329,-13.996094 -3.141,-3.319 -6.17209,-5.171875 -12.49609,-5.171875 -7.989,0 -14.42672,5.118313 -19.13672,10.695313 l -1.24219,6.770097 -2.18086,-1.309129 1.35469,-5.728546 c -0.674,-1.413 -1.15662,-4.289188 -1.89062,-5.117188 -3.219,-3.642 -6.67261,-5.665062 -14.09961,-5.66406 z"
       id="path6-3-7"
       inkscape:connector-curvature="0"
       sodipodi:nodetypes="ccccccccscccccccccccccccccccsccccccccccccccccccccccccccccccscccccc" />
    <path
       style="clip-rule:evenodd;display:inline;fill:#000000;fill-opacity:1;fill-rule:evenodd"
       d="m 140.77989,106.42815 c 1.37143,-3.64883 8.65796,-19.896524 8.731,-32.783002 -1.4647,-4.162151 -4.34164,-5.164181 -7.778,-1.299 -5.12902,11.358084 -10.91447,28.361812 -10.202,35.266002 1.94914,3.11242 6.80546,1.48242 9.249,-1.184 z"
       id="path6-3-1"
       inkscape:connector-curvature="0"
       sodipodi:nodetypes="ccccc" />
  </g>
</svg>
